PathFileType	4	(X/Y/Z)	Apose_0-49.trc
DataRate	CameraRate	NumFrames	NumMarkers	Units	OrigDataRate	OrigDataStartFrame	OrigNumFrames
30	30	9	22	m	30	39	49
Frame#	Time	Hip			RHip			RKnee			RAnkle			RBigToe			RSmallToe			RHeel			LHip			LKnee			LAnkle			LBigToe			LSmallToe			LHeel			Neck			Head			Nose			RShoulder			RElbow			RWrist			LShoulder			LElbow			LWrist		
		X1	Y1	Z1	X2	Y2	Z2	X3	Y3	Z3	X4	Y4	Z4	X5	Y5	Z5	X6	Y6	Z6	X7	Y7	Z7	X8	Y8	Z8	X9	Y9	Z9	X10	Y10	Z10	X11	Y11	Z11	X12	Y12	Z12	X13	Y13	Z13	X14	Y14	Z14	X15	Y15	Z15	X16	Y16	Z16	X17	Y17	Z17	X18	Y18	Z18	X19	Y19	Z19	X20	Y20	Z20	X21	Y21	Z21	X22	Y22	Z22
40	1.3333333333333333	0.6582522282370915	0.8989818159538289	0.3176011408372605	0.6531848911817768	0.862655015673837	0.2303385778587012	0.6512133358538593	0.4962252239374579	0.22581175873181247	0.700357200089739	0.1125812733935436	0.23404707420311763	0.5194486741222488	0.027312067605910286	0.2214975966726977	0.5650186725593304	0.018616514028579265	0.16313027065788455	0.7407356462315331	0.037614043854338926	0.24419980876591113	0.667046138126523	0.8628463351368546	0.4103404144388173	0.6722945282550057	0.4938800577952533	0.40975861524124846	0.7163555771045567	0.11070505209670517	0.4040410936845244	0.5475104680617842	0.023498534758474902	0.41960924498797103	0.579078849814642	0.02330718777327322	0.47585187471988616	0.7696112111270288	0.03688929029767064	0.39848431060340106	0.6530214199305938	1.4893705214753366	0.328276204927321	0.6219330154690298	1.7183821518935622	0.3270845225572251	0.5118358506568214	1.6036786002171368	0.32938879622523864	0.6994169927551939	1.4244920332761426	0.14983462667259095	0.7400899696811687	1.329293162750898	-0.08407237327398175	0.6912085483822514	1.3270420079017762	-0.3388921475673359	0.6865222777840156	1.415012331172815	0.5036105701853242	0.7004286770369083	1.322309260664545	0.7313233262117151	0.6711867849942447	1.330436640818559	0.9827570866985639
41	1.3666666666666667	0.6583667125027058	0.8988592246511471	0.31773319187109866	0.6532338269140281	0.8622496652224076	0.22997959763971582	0.6506369372980974	0.49601314982906597	0.22619132704277056	0.7002059839418872	0.11262642250130303	0.23382327052551888	0.5201924498263799	0.027150577169288793	0.2208134630032304	0.5662320350871538	0.018446053389639887	0.16282365480763777	0.742580406753066	0.03627743551320417	0.24270942042058807	0.6671125677009034	0.8623078202279472	0.41014819254323553	0.6729695525194135	0.49382752438168104	0.40996220265495	0.7166908784398857	0.11070633422893539	0.4042851124311361	0.5484976843815187	0.022969020865948864	0.41923040709811327	0.5789209464320495	0.02325041946856879	0.4760150405792063	0.7700904328225466	0.036673990700908585	0.3984851487231321	0.652662602579198	1.4895087398564373	0.3285000165321087	0.6247434120754485	1.7179236441513086	0.3247927706775113	0.5122056044088653	1.603763577020744	0.3294102525097471	0.6988424945871919	1.4245229086427205	0.14980284535837407	0.7400615178677546	1.3293900845652178	-0.08420695150131635	0.690976232253352	1.3274413669760137	-0.3387273079765752	0.686078511522205	1.4150321486460118	0.5035811209347689	0.7007548096618581	1.3222027998430328	0.7309921001643853	0.6726131288253698	1.3295239174632114	0.9832913130784152
42	1.4	0.6584617612497172	0.8987029852280577	0.3177818718189286	0.6533079945867718	0.8620287695999962	0.22963719771127966	0.650039578738736	0.4959436297013131	0.22664368918715755	0.7000001006377066	0.11267051642585006	0.23355785374193538	0.5213319460673915	0.027035967959106847	0.22023444315159488	0.5675708618286419	0.01837210291175325	0.1623664799382614	0.7446676816401236	0.03490739330425162	0.24115315721318997	0.6672039759859968	0.8620367204462733	0.41008343252153273	0.6734364183098441	0.49405363055087376	0.4098148181709142	0.7170831128292452	0.11070377279654853	0.40439950180122597	0.5488606384887849	0.02284871993416473	0.4189923646534469	0.5789216986264507	0.023252814180105465	0.47609281336292175	0.7706880419215553	0.03636308337905882	0.39831955041920575	0.6524416841222196	1.4895736163186961	0.3287436960715058	0.625756583876055	1.7179107663852693	0.32420915964384167	0.5131892231625966	1.604118083769626	0.32903063628942614	0.6982089634847177	1.4244338019193108	0.14984672561647533	0.739837818325904	1.329434856457588	-0.08417843363638974	0.6908143371216351	1.3278245986847357	-0.33862838626456576	0.6852440697742632	1.4156139475670126	0.5027455651295689	0.701123124762942	1.3221993695069612	0.7304450590320367	0.6746177696092586	1.328320522155062	0.983812145391327
43	1.4333333333333331	0.6586093461385044	0.8984640191135677	0.3177375769833747	0.6534462513072833	0.861882341099691	0.22935259726414753	0.6495612250014122	0.49603040774189067	0.22711966457292976	0.6997220352421785	0.11270073275800273	0.2332643969504219	0.5226817588302045	0.026895457999330078	0.21990154972757794	0.5688483522165344	0.01827156180042539	0.1618697180677113	0.7464484448176851	0.033840032612092306	0.23987159580655265	0.6673212236420122	0.8619104087092572	0.41007443122830345	0.6736833648831873	0.4943093568531701	0.4095009612179703	0.7174220345385918	0.11075470718701631	0.4043637908871685	0.548688233077362	0.023038664259082253	0.4189613733785734	0.5790509758929481	0.023306822268204717	0.4761250729724615	0.7712583999133207	0.0360704884487068	0.3980484258166597	0.6523149422962209	1.4896146499617544	0.32909107543817057	0.62570473377932	1.718070450794642	0.32470600578249276	0.5141076900908541	1.6046274211046736	0.32875198029353736	0.697647761079028	1.4242688307739364	0.15004720963350213	0.7395586171173284	1.3294598096762527	-0.08392435511685224	0.6907160457208132	1.3281770839992797	-0.33848977273076014	0.6842654608847692	1.4165773897918505	0.5014250900840743	0.7015084149329809	1.3222859431025995	0.7298488144923386	0.67649559979259	1.3272684214153792	0.9842821564050223
44	1.4666666666666666	0.6588413482404132	0.8981074647360545	0.31764797493207564	0.6536930249422513	0.8616928338598965	0.22917852732652302	0.6493514108866562	0.4961919005982677	0.22751672081296848	0.6993937506422987	0.11273542748326541	0.23295602006747185	0.5240632740263932	0.026685734145970676	0.2198425185797504	0.5698942168752305	0.018077346309842163	0.16143913189257772	0.747456954699562	0.03328374516672632	0.23906329347354516	0.6674899308425758	0.8617690668107171	0.4100495200819052	0.6736770091753366	0.49418371766834435	0.4094118808111917	0.7175938334611185	0.11089143237481078	0.4042152260394622	0.5481548580698854	0.023395552158689114	0.419162419111172	0.579247627014361	0.02339489013196242	0.4761446943926116	0.7716520133812331	0.03588759595708148	0.397764609260626	0.6522295738369956	1.4896685423912661	0.32956017486858136	0.6250659627114932	1.718200652273479	0.3257341618272104	0.5144475513848681	1.6049738769071562	0.32887931107017654	0.6972380859962582	1.424089431566722	0.1503966562503826	0.7393846306855741	1.3295113127180975	-0.08348541471557411	0.690678231934249	1.328483406484745	-0.33821419901252847	0.6830941517643437	1.4174857338765963	0.5003224456531885	0.7018579714469708	1.3224348666457975	0.7294131830567584	0.6778971871317647	1.3265531208902852	0.9847281301353494
45	1.5	0.6590978511566674	0.8976535389310061	0.3175637674862631	0.65406459606349	0.8613964890542035	0.22909934387849334	0.6496434577945792	0.49634989463124873	0.2277526055796305	0.6991038733584011	0.11282422111640342	0.2327070669104978	0.5253296799590362	0.026437128312024737	0.21998833225584527	0.5706011747998144	0.017822175317570663	0.16115661742431803	0.7474328082999498	0.03321169489518143	0.2386674730914958	0.6677427978280671	0.8614590488458251	0.40994087622730013	0.6734743898329723	0.4934467220659845	0.40980920396130116	0.7175111882923798	0.11106826153297883	0.40403122234154426	0.547519813950568	0.023793968718657663	0.4195607968473567	0.5794690395098228	0.023460699744039963	0.476107293207063	0.7717901579513402	0.03582363334158918	0.39753913584509015	0.6521228336246215	1.4897534075824028	0.33014619558454356	0.6240347769649155	1.7181946916276443	0.3269730156331745	0.5137689018371908	1.6046740050864248	0.3295166816001303	0.6969858157865411	1.423931896143441	0.1507985660786759	0.739396858736867	1.3296446010228211	-0.08295567777294002	0.6907500827657422	1.3287357597693037	-0.33776327573445863	0.6815210317110654	1.4181073302633662	0.4997958102759146	0.7021162726384904	1.3226101522030909	0.72936122640654	0.6790191759462847	1.325990043589831	0.985159061456083
46	1.5333333333333334	0.6592741569517571	0.8971941177569741	0.31751672797385483	0.6545281049742192	0.8610283154150026	0.22900887752868823	0.6505685519581639	0.4964683916388634	0.22780742726498027	0.6989533426009137	0.11302136158345877	0.23265007372851296	0.526327631890866	0.026276148689848077	0.2202531816657093	0.5708751760843453	0.017651843184368368	0.161072698257039	0.7462123598236489	0.03350555123330289	0.23843719698613824	0.6680973523405649	0.8609187605696182	0.40972139525107243	0.6731538235030693	0.4920728816239254	0.41072834961863985	0.7172252352762816	0.11109490288024451	0.4038689924492088	0.547306852945255	0.024081977841891814	0.4199718307188328	0.5797492447555496	0.023402214302705414	0.47584547538641336	0.7717090253065477	0.035792399550672545	0.3973892241298833	0.6519004016069091	1.4898756755355405	0.3308546534533865	0.622657241709997	1.7180442912100355	0.32831192655679453	0.5115510679058297	1.6031260252994008	0.3307419344867789	0.6968527877647327	1.423810436138785	0.15115022865729566	0.7395842050351266	1.3298972794192412	-0.08243040499335313	0.6910316069779998	1.3289353965536868	-0.3371989642286809	0.6795290831537477	1.4185888525715824	0.49959009534917126	0.7022384185163176	1.3228092417278614	0.7298791457394784	0.6801306014568261	1.325339345581626	0.9854941927470091
47	1.5666666666666669	0.6592957134351011	0.8968559758862658	0.3175362741371023	0.6550493274203943	0.8606727440497609	0.22877414287236442	0.6519418291512212	0.49649542570983646	0.22770906805595115	0.6989881023748754	0.11335186593484105	0.2329020056351467	0.5269197683595684	0.026371228035725027	0.22059781379562732	0.5706461759256062	0.01772974534983953	0.1612145951194608	0.7437134593731024	0.034055458051291114	0.23801117679525802	0.6685642486403461	0.8601840722088101	0.4094150549167503	0.6726815647702655	0.4899892765573576	0.4122055304721933	0.7169168585832829	0.11070442985334994	0.40374519261966263	0.5482486127894786	0.02405972362800647	0.4200606992833722	0.5801643073809639	0.023107959146128742	0.47514287144932593	0.7715179533086964	0.03567550782521864	0.3973164745778567	0.6514597158335346	1.4900369364259225	0.3316931009514536	0.6209436920033039	1.7178150014196867	0.32975153148666225	0.5073036282451199	1.599739507824351	0.3326604372475659	0.6967950852953809	1.4237326122516094	0.151395574318312	0.7398990930164033	1.3302650359092214	-0.08199475345913192	0.6916286639762563	1.329083286782116	-0.3366443943626232	0.6773680692498204	1.4191356745337904	0.4993074209654289	0.7021987190754276	1.32306538245609	0.7310399063358218	0.6811546678758003	1.3245923480099118	0.9856067973824042
48	1.6	0.6591578401141135	0.8967218674565222	0.31764292372989184	0.6556391264009358	0.8603824187096615	0.22833171302409921	0.653465100992373	0.4963854838793067	0.22750752143309388	0.6991857106151367	0.11379803530182468	0.23348223279070376	0.5270848404484726	0.026804194216951058	0.221021450913864	0.5699555553788216	0.01810526463851002	0.16158049089272197	0.7400879268968216	0.03473684165186674	0.23706186900101292	0.6691507115470035	0.8593329925215806	0.40905832410147813	0.671942919244429	0.4870368987836349	0.4143821688220178	0.7167291330008383	0.10976451289159557	0.4036718434784781	0.5506936953137188	0.023630898107359067	0.4196020500721281	0.5807467293704187	0.022526062047996027	0.47390297730263187	0.7713233557000405	0.03541520867006748	0.3973397741731468	0.650760710114161	1.490233949415516	0.33265750980451825	0.6189379569511267	1.717587843744483	0.3313045573020079	0.5009164675897487	1.5942973399809461	0.3352895802146297	0.6967840845290165	1.4236859674686821	0.15152984607376518	0.7403014808942476	1.330709600933277	-0.0817007618791239	0.6925805512604591	1.3291868735996881	-0.3361954065121631	0.6753437697568275	1.4197324462763636	0.4988640816711351	0.7020202216130246	1.323400008661132	0.7327470978729302	0.6818864891961827	1.3238656243184637	0.9854454512642911
